HIERARCHY
ROOT Hips
{
	OFFSET 0.000000 0.000000 0.000000
	CHANNELS 6 Xposition Yposition Zposition Xrotation Yrotation Zrotation
	JOINT LeftUpLeg_virtual
	{
		OFFSET 0.000000 0.000000 0.000000
		CHANNELS 3 Xrotation Yrotation Zrotation
		JOINT LeftUpLeg
		{
			OFFSET 11.394100 -6.187798 -0.413800
			CHANNELS 3 Xrotation Yrotation Zrotation
			JOINT LeftLeg
			{
				OFFSET 0.430247 -32.302673 3.732800
				CHANNELS 3 Xrotation Yrotation Zrotation
				JOINT LeftFoot
				{
					OFFSET -0.430247 -48.264931 -6.423300
					CHANNELS 3 Xrotation Yrotation Zrotation
					JOINT LeftToeBase
					{
						OFFSET 4.230900 -16.068199 23.438400
						CHANNELS 3 Xrotation Yrotation Zrotation
						JOINT LeftToe_End
						{
							OFFSET 4.510700 0.695400 19.974600
							CHANNELS 3 Xrotation Yrotation Zrotation
							End Site
							{
								OFFSET 0 0 0
							}
						}
					}
				}
			}
		}
	}
	JOINT RightUpLeg_virtual
	{
		OFFSET 0.000000 0.000000 0.000000
		CHANNELS 3 Xrotation Yrotation Zrotation
		JOINT RightUpLeg
		{
			OFFSET -11.333700 -6.187798 -0.413800
			CHANNELS 3 Xrotation Yrotation Zrotation
			JOINT RightLeg
			{
				OFFSET -0.430392 -32.302628 3.733000
				CHANNELS 3 Xrotation Yrotation Zrotation
				JOINT RightFoot
				{
					OFFSET 0.430392 -48.264973 -6.423500
					CHANNELS 3 Xrotation Yrotation Zrotation
					JOINT RightToeBase
					{
						OFFSET -4.230900 -16.068199 23.438400
						CHANNELS 3 Xrotation Yrotation Zrotation
						JOINT RightToe_End
						{
							OFFSET -4.510700 0.695400 19.974600
							CHANNELS 3 Xrotation Yrotation Zrotation
							End Site
							{
								OFFSET 0 0 0
							}
						}
					}
				}
			}
		}
	}
	JOINT Spine_virtual
	{
		OFFSET 0.000000 0.000000 0.000000
		CHANNELS 3 Xrotation Yrotation Zrotation
		JOINT Spine
		{
			OFFSET -0.002400 12.777504 0.315300
			CHANNELS 3 Xrotation Yrotation Zrotation
			JOINT Spine1
			{
				OFFSET -0.002067 5.816869 0.032633
				CHANNELS 3 Xrotation Yrotation Zrotation
				JOINT Spine1_split
				{
					OFFSET -0.002067 5.816869 0.032633
					CHANNELS 3 Xrotation Yrotation Zrotation
					JOINT Spine2
					{
						OFFSET -0.002067 5.816869 0.032633
						CHANNELS 3 Xrotation Yrotation Zrotation
						JOINT Neck_virtual
						{
							OFFSET 0.000000 0.000000 0.000000
							CHANNELS 3 Xrotation Yrotation Zrotation
							JOINT Neck
							{
								OFFSET -0.003700 21.199493 -0.826900
								CHANNELS 3 Xrotation Yrotation Zrotation
								JOINT Head
								{
									OFFSET 0.000000 20.442200 4.834800
									CHANNELS 3 Xrotation Yrotation Zrotation
									JOINT HeadTop_End
									{
										OFFSET 0.000000 34.668396 4.968400
										CHANNELS 3 Xrotation Yrotation Zrotation
										End Site
										{
											OFFSET 0 0 0
										}
									}
								}
							}
						}
						JOINT LeftShoulder_virtual
						{
							OFFSET 0.000000 0.000000 0.000000
							CHANNELS 3 Xrotation Yrotation Zrotation
							JOINT LeftShoulder
							{
								OFFSET 3.288150 8.794197 -1.372250
								CHANNELS 3 Xrotation Yrotation Zrotation
								JOINT LeftShoulder_split
								{
									OFFSET 3.288150 8.794197 -1.372250
									CHANNELS 3 Xrotation Yrotation Zrotation
									JOINT LeftArm
									{
										OFFSET 11.953299 -2.279007 -0.146200
										CHANNELS 3 Xrotation Yrotation Zrotation
										JOINT LeftForeArm
										{
											OFFSET 18.448900 0.000000 0.000000
											CHANNELS 3 Xrotation Yrotation Zrotation
											JOINT LeftHand
											{
												OFFSET 29.527798 0.000000 0.000000
												CHANNELS 3 Xrotation Yrotation Zrotation
												End Site
												{
													OFFSET 0 0 0
												}
											}
										}
									}
								}
							}
						}
						JOINT RightShoulder_virtual
						{
							OFFSET 0.000000 0.000000 0.000000
							CHANNELS 3 Xrotation Yrotation Zrotation
							JOINT RightShoulder
							{
								OFFSET -3.249400 8.794197 -1.372250
								CHANNELS 3 Xrotation Yrotation Zrotation
								JOINT RightShoulder_split
								{
									OFFSET -3.249400 8.794197 -1.372250
									CHANNELS 3 Xrotation Yrotation Zrotation
									JOINT RightArm
									{
										OFFSET -11.953299 -2.279007 -0.146200
										CHANNELS 3 Xrotation Yrotation Zrotation
										JOINT RightForeArm
										{
											OFFSET -18.448900 0.000000 0.000000
											CHANNELS 3 Xrotation Yrotation Zrotation
											JOINT RightHand
											{
												OFFSET -29.527802 0.000000 0.000000
												CHANNELS 3 Xrotation Yrotation Zrotation
												End Site
												{
													OFFSET 0 0 0
												}
											}
										}
									}
								}
							}
						}
					}
				}
			}
		}
	}
}
MOTION
Frames: 4
Frame Time: 0.03333333
1.053060 91.451614 -0.616737 0.000000 0.000000 0.000000 9.552027 -61.637041 10.137405 -39.400523 10.449808 24.281061 35.193151 -6.324781 1.197206 -1.670225 -2.664530 -16.850015 -1.836420 -0.000600 -0.000033 0.000000 0.000000 0.000000 9.552027 -61.637041 10.137405 -33.417244 -17.905819 -33.264985 34.415363 3.036382 -4.033053 -7.712888 1.356607 23.067757 -0.001697 -0.000458 0.000001 0.000000 0.000000 0.000000 9.552027 -61.637041 10.137405 15.063817 -0.301339 -4.275751 5.872402 0.563939 -2.798214 0.000000 0.000000 0.000000 0.000000 0.000000 0.000000 5.868713 0.648185 -2.860163 -3.632880 1.437142 3.747497 -20.005960 54.836788 2.407370 0.000000 0.000000 0.000000 5.868713 0.648185 -2.860163 1.828098 -3.192689 -12.271570 0.000000 0.000000 0.000000 -39.387409 26.350501 -34.911095 0.429354 -46.808448 0.416189 0.000000 0.000000 0.000000 5.868713 0.648185 -2.860163 0.632607 7.257353 8.700391 0.000000 0.000000 0.000000 7.936014 -9.680164 53.429910 -22.867419 36.194696 17.955440 0.000000 0.000000 0.000000 
0.766477 92.130051 1.804161 0.000000 0.000000 0.000000 9.154141 -62.178730 9.527351 -38.224399 11.430470 23.599446 35.953849 -5.953233 1.226756 -3.459657 -2.692143 -15.677644 -1.836420 -0.000600 -0.000033 0.000000 0.000000 0.000000 9.154141 -62.178730 9.527351 -30.878165 -14.781742 -32.222322 33.821871 -1.034073 -3.497889 -4.566493 0.165647 22.997167 -2.463987 -0.054743 1.093928 0.000000 0.000000 0.000000 9.154141 -62.178730 9.527351 15.048794 -0.403876 -4.220478 5.633808 0.369641 -2.696469 0.000000 0.000000 0.000000 0.000000 0.000000 0.000000 5.629853 0.454785 -2.759862 -3.655640 1.814224 3.662546 -19.581883 54.532360 1.920067 0.000000 0.000000 0.000000 5.629853 0.454785 -2.759862 1.851091 -3.205579 -12.196509 0.000000 0.000000 0.000000 -39.716607 26.246979 -34.186521 2.759072 -45.717431 2.309614 0.000000 0.000000 0.000000 5.629853 0.454785 -2.759862 0.772925 7.546831 9.119208 0.000000 0.000000 0.000000 2.943612 -7.711115 52.563449 -20.404012 29.266094 13.879047 0.000000 0.000000 0.000000 
0.470572 92.751320 4.202904 0.000000 0.000000 0.000000 8.785831 -62.689061 8.937465 -36.953922 12.338933 22.840851 36.553178 -5.472583 1.265193 -5.187257 -2.765456 -14.578844 -1.836420 -0.000602 -0.000033 0.000000 0.000000 0.000000 8.785831 -62.689061 8.937465 -28.839238 -11.036724 -31.160733 34.210959 -5.242633 -2.914672 -1.504527 -1.090168 22.476336 -4.783599 -0.133376 1.674397 0.000000 0.000000 0.000000 8.785831 -62.689061 8.937465 14.995831 -0.661646 -4.069882 5.045685 -0.128994 -2.448172 0.000000 0.000000 0.000000 0.000000 0.000000 0.000000 5.040996 -0.041588 -2.515158 -3.720491 2.785938 3.434605 -18.635227 53.713069 0.794571 0.000000 0.000000 0.000000 5.040996 -0.041588 -2.515158 1.873397 -3.331845 -12.086869 0.000000 0.000000 0.000000 -40.480052 25.785467 -33.065113 6.768807 -44.015105 5.583179 0.000000 0.000000 0.000000 5.040996 -0.041588 -2.515158 0.936702 7.766037 9.550951 0.000000 0.000000 0.000000 -1.613917 -5.712802 52.002048 -18.552332 22.793202 10.360616 0.000000 0.000000 0.000000 
0.147314 93.105820 6.491943 0.000000 0.000000 0.000000 8.653389 -63.044217 8.505920 -36.174529 12.919702 22.193277 37.628704 -5.011510 1.303153 -7.008740 -2.853446 -13.587230 -1.836420 -0.000602 -0.000033 0.000000 0.000000 0.000000 8.653389 -63.044217 8.505920 -28.257690 -4.818511 -29.000635 37.904825 -9.657624 -2.192680 0.401276 -2.640886 20.815147 -6.285839 -0.338463 0.451011 0.000000 0.000000 0.000000 8.653389 -63.044217 8.505920 14.893041 -1.006448 -3.866445 4.298303 -0.805936 -2.138089 0.000000 0.000000 0.000000 0.000000 0.000000 0.000000 4.292560 -0.715856 -2.209650 -3.818489 4.116815 3.101285 -17.633243 52.530466 -0.480022 0.000000 0.000000 0.000000 4.292560 -0.715856 -2.209650 1.949450 -3.526666 -11.745688 0.000000 0.000000 0.000000 -41.471041 25.115190 -32.276885 9.414647 -42.555958 7.776761 0.000000 0.000000 0.000000 4.292560 -0.715856 -2.209650 1.113365 7.883241 10.023657 0.000000 0.000000 0.000000 -4.540864 -4.564137 51.563707 -17.617655 19.210918 8.374716 0.000000 0.000000 0.000000 
